<svg width="16" height="16" viewBox="0 0 16 16" fill="none" xmlns="http://www.w3.org/2000/svg">
<g clip-path="url(#clip0_15702_42)">
<path opacity="0.4" d="M5.625 13.8501H3C2.20435 13.8501 1.44129 13.5444 0.87868 13.0004C0.31607 12.4564 0 11.7186 0 10.9492L0 5.14745C0 4.37809 0.31607 3.64025 0.87868 3.09623C1.44129 2.55221 2.20435 2.24658 3 2.24658H5.625C5.72446 2.24658 5.81984 2.28479 5.89016 2.35279C5.96049 2.42079 6 2.51302 6 2.60919V3.81789C6 3.91406 5.96049 4.00629 5.89016 4.07429C5.81984 4.14229 5.72446 4.1805 5.625 4.1805H3C2.73478 4.1805 2.48043 4.28237 2.29289 4.46371C2.10536 4.64505 2 4.891 2 5.14745V10.9492C2 11.2056 2.10536 11.4516 2.29289 11.6329C2.48043 11.8143 2.73478 11.9162 3 11.9162H5.625C5.72446 11.9162 5.81984 11.9544 5.89016 12.0224C5.96049 12.0904 6 12.1826 6 12.2788V13.4875C6 13.5836 5.96049 13.6759 5.89016 13.7439C5.81984 13.8119 5.72446 13.8501 5.625 13.8501V13.8501Z" fill="#213F7D"/>
<path d="M11.0313 2.98079L15.7781 7.53153C15.8485 7.59896 15.9044 7.67921 15.9425 7.76764C15.9807 7.85607 16.0003 7.95093 16.0003 8.04674C16.0003 8.14255 15.9807 8.23741 15.9425 8.32584C15.9044 8.41427 15.8485 8.49452 15.7781 8.56195L11.0281 13.1187C10.8868 13.2534 10.6962 13.3286 10.4978 13.328C10.2994 13.3275 10.1093 13.2512 9.96875 13.1157L9.28438 12.4539C9.21298 12.3845 9.15683 12.3018 9.1193 12.2108C9.08177 12.1198 9.06363 12.0224 9.06596 11.9245C9.0683 11.8266 9.09106 11.7302 9.13289 11.641C9.17472 11.5517 9.23475 11.4716 9.30938 11.4054L11.7344 9.25695H5.75C5.65144 9.25719 5.5538 9.23859 5.4627 9.20223C5.37159 9.16587 5.28881 9.11246 5.21912 9.04507C5.14943 8.97768 5.09419 8.89764 5.05659 8.80954C5.01899 8.72145 4.99976 8.62703 5 8.53173V7.56477C4.99976 7.46947 5.01899 7.37506 5.05659 7.28696C5.09419 7.19887 5.14943 7.11882 5.21912 7.05143C5.28881 6.98404 5.37159 6.93063 5.4627 6.89427C5.5538 6.85791 5.65144 6.83932 5.75 6.83956H11.7344L9.30938 4.6911C9.23516 4.62486 9.17555 4.54482 9.1341 4.45576C9.09266 4.36671 9.07025 4.27048 9.0682 4.17284C9.06616 4.0752 9.08453 3.97817 9.12222 3.88757C9.1599 3.79697 9.21612 3.71466 9.2875 3.64558L9.97188 2.98381C10.1121 2.84779 10.3023 2.77108 10.5009 2.77051C10.6995 2.76994 10.8902 2.84557 11.0313 2.98079V2.98079Z" fill="#213F7D"/>
</g>
<defs>
<clipPath id="clip0_15702_42">
<rect width="16" height="15.4713" fill="white" transform="translate(0 0.312622)"/>
</clipPath>
</defs>
</svg>
