<svg width="16" height="16" viewBox="0 0 16 16" fill="none" xmlns="http://www.w3.org/2000/svg">
<g clip-path="url(#clip0_15702_53)">
<path opacity="0.4" d="M8 2C4.6875 2 2 4.6875 2 8C2 11.3125 4.6875 14 8 14C11.3125 14 14 11.3125 14 8C14 4.6875 11.3125 2 8 2ZM8 3.5C8.69482 3.49885 9.38038 3.65933 10.0025 3.96875L8.78813 5.64094C8.27905 5.45562 7.72095 5.45562 7.21187 5.64094L5.9975 3.96875C6.61962 3.65933 7.30518 3.49885 8 3.5ZM3.5475 8.65625C3.51581 8.43894 3.49994 8.21961 3.5 8C3.49677 6.82214 3.95869 5.69064 4.78531 4.85156L5.99625 6.51844C5.67536 6.94584 5.50128 7.46555 5.5 8C5.5 8.00781 5.50219 8.015 5.50219 8.0225L3.5475 8.65625ZM7.25 12.4375C6.56544 12.3207 5.91702 12.0477 5.3551 11.6396C4.79318 11.2316 4.3329 10.6995 4.01 10.0847L5.96875 9.44875C6.28436 9.88753 6.73403 10.2118 7.25 10.3728V12.4375ZM8 9C7.80222 9 7.60888 8.94135 7.44443 8.83147C7.27998 8.72159 7.15181 8.56541 7.07612 8.38268C7.00043 8.19996 6.98063 7.99889 7.01921 7.80491C7.0578 7.61093 7.15304 7.43275 7.29289 7.29289C7.43275 7.15304 7.61093 7.0578 7.80491 7.01921C7.99889 6.98063 8.19996 7.00043 8.38268 7.07612C8.56541 7.15181 8.72159 7.27998 8.83147 7.44443C8.94135 7.60888 9 7.80222 9 8C9 8.26522 8.89464 8.51957 8.70711 8.70711C8.51957 8.89464 8.26522 9 8 9ZM11.1819 11.1819C10.5227 11.8447 9.6721 12.2839 8.75 12.4375V10.3728C9.26597 10.2118 9.71564 9.88753 10.0312 9.44875L11.99 10.085C11.7778 10.4895 11.5053 10.8593 11.1819 11.1819ZM10.4978 8.02281C10.4978 8.015 10.5 8.00781 10.5 8C10.4987 7.46555 10.3246 6.94584 10.0037 6.51844L11.2147 4.85156C12.0413 5.69064 12.5032 6.82214 12.5 8C12.5 8.22013 12.4841 8.43996 12.4525 8.65781L10.4978 8.02281Z" fill="#213F7D"/>
<path d="M8 7C7.80222 7 7.60888 7.05865 7.44443 7.16853C7.27998 7.27841 7.15181 7.43459 7.07612 7.61732C7.00043 7.80004 6.98063 8.00111 7.01921 8.19509C7.0578 8.38907 7.15304 8.56725 7.29289 8.70711C7.43275 8.84696 7.61093 8.9422 7.80491 8.98079C7.99889 9.01937 8.19996 8.99957 8.38268 8.92388C8.56541 8.84819 8.72159 8.72002 8.83147 8.55557C8.94135 8.39112 9 8.19778 9 8C9 7.73478 8.89464 7.48043 8.70711 7.29289C8.51957 7.10536 8.26522 7 8 7ZM8 0C3.58187 0 0 3.58187 0 8C0 12.4181 3.58187 16 8 16C12.4181 16 16 12.4181 16 8C16 3.58187 12.4181 0 8 0ZM8 14C4.69156 14 2 11.3084 2 8C2 4.69156 4.69156 2 8 2C11.3084 2 14 4.69156 14 8C14 11.3084 11.3084 14 8 14Z" fill="#213F7D"/>
</g>
<defs>
<clipPath id="clip0_15702_53">
<rect width="16" height="16" fill="white"/>
</clipPath>
</defs>
</svg>
